<?xml version="1.0" encoding="utf-8"?>
<!-- Generator: Adobe Illustrator 25.4.1, SVG Export Plug-In . SVG Version: 6.00 Build 0)  -->
<svg version="1.1" id="Camada_1" xmlns="http://www.w3.org/2000/svg" xmlns:xlink="http://www.w3.org/1999/xlink" x="0px" y="0px"
	 viewBox="0 0 595.28 841.89" style="enable-background:new 0 0 595.28 841.89;" xml:space="preserve">
<style type="text/css">
	.st0{fill:#FFFFFF;}
</style>
<g>
	<g>
		<path class="st0" d="M251.52,472.89h-1.1v3.23h1.1c0.89,0,1.59-0.76,1.59-1.64C253.11,473.61,252.41,472.89,251.52,472.89
			 M251.83,477.4h-1.41v2.8h-1.66v-8.56h3.07c1.61,0,2.92,1.24,2.92,2.87C254.75,476.14,253.44,477.4,251.83,477.4"/>
		<path class="st0" d="M260.8,472.85h-1.2v2.67h1.2c0.8,0,1.43-0.5,1.43-1.31C262.24,473.41,261.61,472.85,260.8,472.85
			 M262.58,480.19l-0.61-1.95c-0.26-0.86-0.72-1.46-1.75-1.46h-0.62v3.41h-1.64v-8.56l3.38-0.01c1.47,0,2.56,1.06,2.56,2.46
			c0,0.99-0.66,1.95-1.61,2.26c0.55,0.2,0.87,0.59,1.07,1.11c0.2,0.48,0.34,0.92,0.6,1.68c0.16,0.47,0.28,0.79,0.44,1.05h-1.82
			V480.19z"/>
		<path class="st0" d="M271.8,473.04c-1.6,0-2.88,1.31-2.88,2.87c0,1.55,1.29,2.87,2.88,2.87s2.87-1.32,2.87-2.87
			C274.67,474.35,273.38,473.04,271.8,473.04 M271.8,480.35c-2.5,0-4.55-1.97-4.55-4.45c0-2.5,2.06-4.44,4.55-4.44
			c2.48,0,4.54,1.96,4.54,4.44C276.34,478.37,274.28,480.35,271.8,480.35"/>
		<path class="st0" d="M282.87,472.93h-1.45v5.85h1.45c1.59,0,2.83-1.36,2.83-2.91C285.69,474.4,284.45,472.93,282.87,472.93
			 M283.34,480.19h-3.58v-8.57h3.58c2.36,0,4.04,1.93,4.04,4.29C287.37,478.27,285.69,480.19,283.34,480.19"/>
		<path class="st0" d="M298.3,471.62v4.65c0,2.27-1.4,4.07-3.79,4.07c-2.34,0-3.82-1.76-3.82-4.02v-4.7h1.66v4.71
			c0,1.32,0.75,2.38,2.13,2.38c1.45,0,2.14-1,2.14-2.36v-4.73H298.3z"/>
		<path class="st0" d="M309.67,478.65c-0.78,0.94-1.89,1.56-3.18,1.68l-0.11,0.47c0.73,0.12,1.04,0.6,1.04,1.1
			c0,0.47-0.46,1.04-1.14,1.04c-0.44,0-0.76-0.09-1.06-0.33l0.07-0.36l0.43,0.13c0.37,0,0.64-0.26,0.64-0.55
			c0-0.33-0.26-0.59-0.64-0.59l-0.26,0.03l0.18-0.94c-2.34-0.2-4.13-2.11-4.13-4.42c0-2.48,2.05-4.44,4.58-4.44
			c1.47,0,2.73,0.67,3.54,1.66l-1.14,1.18c-0.52-0.77-1.4-1.26-2.4-1.26c-1.6,0-2.91,1.3-2.91,2.87c0,1.54,1.32,2.86,2.91,2.86
			c1.07,0,1.88-0.52,2.42-1.31L309.67,478.65z"/>
		<path class="st0" d="M319.09,469.03c-0.03,0.89-0.4,1.83-1.41,1.83c-0.65,0-1.11-0.47-1.66-0.47c-0.26,0-0.38,0.25-0.41,0.47
			h-0.92c0-0.86,0.41-1.83,1.4-1.83c0.62,0,1.18,0.47,1.62,0.47c0.29,0,0.42-0.22,0.46-0.47H319.09z M316.9,473.04
			c-1.6,0-2.88,1.31-2.88,2.87c0,1.55,1.29,2.87,2.88,2.87s2.87-1.32,2.87-2.87C319.77,474.35,318.48,473.04,316.9,473.04
			 M316.9,480.35c-2.5,0-4.55-1.97-4.55-4.45c0-2.5,2.06-4.44,4.55-4.44c2.48,0,4.54,1.96,4.54,4.44
			C321.44,478.37,319.38,480.35,316.9,480.35"/>
		<polygon class="st0" points="330.51,480.19 324.86,480.19 324.86,471.64 330.51,471.64 330.51,473.01 326.49,473.01 
			326.49,475.05 330.46,475.05 330.46,476.39 326.49,476.39 326.49,478.75 330.51,478.75 		"/>
		<path class="st0" d="M336.84,480.35c-1.48,0-2.3-0.33-3.33-1.16l1.18-1.19c0.68,0.57,1.31,0.78,2.08,0.78
			c0.63,0,1.14-0.39,1.14-0.89c0-0.55-0.33-0.81-1.76-1.33c-1.25-0.46-2.39-1.12-2.39-2.63c0-1.47,1.24-2.49,2.81-2.49
			c1.32,0,2.16,0.35,2.86,1.01l-1.16,1.17c-0.43-0.42-0.92-0.64-1.65-0.64c-0.64,0-1.15,0.43-1.15,0.91c0,0.55,0.42,0.86,1.76,1.34
			c1.71,0.6,2.42,1.37,2.42,2.71C339.66,479.22,338.49,480.35,336.84,480.35"/>
		<path class="st0" d="M245.06,485.78h-1.45v5.85h1.45c1.59,0,2.83-1.36,2.83-2.91C247.88,487.24,246.64,485.78,245.06,485.78
			 M245.53,493.04h-3.58v-8.57h3.58c2.36,0,4.04,1.93,4.04,4.28C249.56,491.11,247.88,493.04,245.53,493.04"/>
		<polygon class="st0" points="258.64,493.04 252.99,493.04 252.99,484.48 258.64,484.48 258.64,485.85 254.61,485.85 254.61,487.9 
			258.59,487.9 258.59,489.24 254.61,489.24 254.61,491.59 258.64,491.59 		"/>
		<path class="st0" d="M270.48,493.2c-1.48,0-2.3-0.33-3.33-1.16l1.18-1.19c0.68,0.57,1.31,0.78,2.08,0.78
			c0.63,0,1.14-0.39,1.14-0.89c0-0.55-0.33-0.81-1.76-1.33c-1.25-0.46-2.39-1.12-2.39-2.63c0-1.47,1.24-2.49,2.81-2.49
			c1.32,0,2.16,0.35,2.86,1.01l-1.16,1.17c-0.43-0.42-0.92-0.64-1.65-0.64c-0.64,0-1.15,0.43-1.15,0.91c0,0.55,0.42,0.86,1.76,1.34
			c1.71,0.6,2.42,1.37,2.42,2.71C273.3,492.06,272.13,493.2,270.48,493.2"/>
		<path class="st0" d="M280.84,485.88c-1.6,0-2.88,1.31-2.88,2.87c0,1.55,1.29,2.87,2.88,2.87s2.87-1.32,2.87-2.87
			C283.71,487.19,282.43,485.88,280.84,485.88 M280.84,493.2c-2.5,0-4.55-1.97-4.55-4.45c0-2.5,2.06-4.44,4.55-4.44
			c2.48,0,4.54,1.96,4.54,4.44C285.38,491.22,283.33,493.2,280.84,493.2"/>
		<polygon class="st0" points="294.46,485.91 290.43,485.91 290.43,487.9 294.41,487.9 294.41,489.25 290.43,489.25 290.43,493.04 
			288.81,493.04 288.81,484.48 294.46,484.48 		"/>
		<polygon class="st0" points="303.55,485.96 301.18,485.96 301.18,493.04 299.5,493.04 299.5,485.96 297.13,485.96 297.13,484.48 
			303.55,484.48 		"/>
		<polygon class="st0" points="317.7,484.47 314.92,493.04 313.46,493.04 311.89,487.75 310.3,493.04 308.85,493.04 306.06,484.47 
			307.82,484.47 309.63,490.01 311.19,484.47 312.56,484.47 314.13,490.02 315.96,484.47 		"/>
		<path class="st0" d="M324.84,489.94l-1.43-3.09l-1.44,3.09H324.84z M328.11,493.04h-1.82l-0.79-1.71h-4.16l-0.8,1.71h-1.82
			l4.05-8.57h1.3L328.11,493.04z"/>
		<path class="st0" d="M333.94,485.69h-1.2v2.67h1.2c0.8,0,1.43-0.5,1.43-1.31C335.37,486.26,334.74,485.69,333.94,485.69
			 M335.72,493.04l-0.61-1.95c-0.26-0.86-0.72-1.46-1.75-1.46h-0.62v3.41h-1.64v-8.56l3.38-0.01c1.47,0,2.56,1.06,2.56,2.46
			c0,0.99-0.66,1.95-1.61,2.26c0.55,0.2,0.87,0.59,1.07,1.11c0.2,0.48,0.34,0.92,0.6,1.68c0.16,0.47,0.28,0.79,0.44,1.05h-1.82
			V493.04z"/>
		<polygon class="st0" points="346.36,493.04 340.7,493.04 340.7,484.48 346.36,484.48 346.36,485.85 342.33,485.85 342.33,487.9 
			346.3,487.9 346.3,489.24 342.33,489.24 342.33,491.59 346.36,491.59 		"/>
		<path class="st0" d="M303.15,405.11c-2.42-4.81-5.9-8.43-10.43-10.85s-9.34-3.21-14.41-2.35c-4.99,0.83-9.2,3.13-12.65,6.89
			c-3.45,3.76-5.54,8.31-6.26,13.65L303.15,405.11z M325.35,409.36c0.22,1.29,0.37,2.64,0.46,4.05c0.09,1.41,0.17,2.87,0.23,4.37
			l-63.97,10.71c1.12,2.18,2.53,4.2,4.22,6.06c1.68,1.85,3.63,3.38,5.82,4.58c2.19,1.2,4.59,2.03,7.18,2.5s5.36,0.45,8.32-0.04
			c3.6-0.6,7.1-1.83,10.49-3.68c3.39-1.85,6.11-4.03,8.15-6.56l14.71,10.49c-4.84,5.08-9.78,8.92-14.8,11.52
			c-5.02,2.59-10.49,4.39-16.39,5.38c-6,1-11.79,0.84-17.38-0.51c-5.59-1.34-10.61-3.58-15.08-6.73
			c-4.46-3.14-8.23-7.09-11.31-11.84c-3.07-4.75-5.1-10.04-6.07-15.85c-0.97-5.82-0.78-11.47,0.58-16.96s3.66-10.46,6.9-14.89
			c3.24-4.43,7.26-8.19,12.06-11.27c4.8-3.08,10.15-5.12,16.06-6.1c5.63-0.94,11.2-0.81,16.72,0.4s10.57,3.33,15.16,6.36
			s8.46,6.91,11.63,11.65C322.22,397.72,324.32,403.18,325.35,409.36"/>
		<path class="st0" d="M348.04,457.37c-1.49,0.7-3.17,1.27-5.05,1.71c-1.88,0.43-3.83,0.66-5.84,0.66c-2.8,0-5.49-0.37-8.07-1.12
			c-2.58-0.74-4.84-1.95-6.76-3.61c-1.93-1.66-3.46-3.83-4.6-6.5s-1.71-5.89-1.71-9.65V348.8h19.3v86.77c0,3.15,0.63,5.32,1.9,6.5
			s2.78,1.77,4.53,1.77c2.19,0,4.29-0.66,6.3-1.97L348.04,457.37L348.04,457.37z"/>
		<path class="st0" d="M355.41,353.68c-0.42-0.97-0.99-1.81-1.71-2.54c-0.73-0.73-1.57-1.3-2.54-1.71s-2-0.62-3.11-0.62
			c-1.1,0-2.14,0.21-3.11,0.62c-0.97,0.42-1.82,0.99-2.54,1.71c-0.73,0.73-1.3,1.57-1.71,2.54c-0.42,0.97-0.62,2.01-0.62,3.11
			c0,1.11,0.21,2.14,0.62,3.11c0.41,0.97,0.99,1.81,1.71,2.54c0.73,0.73,1.57,1.3,2.54,1.71c0.97,0.42,2,0.62,3.11,0.62
			c1.1,0,2.14-0.21,3.11-0.62c0.97-0.42,1.82-0.99,2.54-1.71c0.73-0.73,1.3-1.57,1.71-2.54c0.42-0.97,0.62-2.01,0.62-3.11
			C356.03,355.68,355.82,354.65,355.41,353.68 M353.99,359.3c-0.34,0.78-0.8,1.47-1.39,2.05c-0.58,0.58-1.27,1.05-2.05,1.39
			c-0.78,0.34-1.62,0.51-2.51,0.51s-1.73-0.17-2.51-0.51s-1.47-0.81-2.05-1.39c-0.58-0.58-1.05-1.26-1.39-2.05
			c-0.34-0.78-0.51-1.62-0.51-2.51s0.17-1.73,0.51-2.51s0.8-1.46,1.39-2.05c0.58-0.58,1.27-1.05,2.05-1.39
			c0.78-0.34,1.62-0.51,2.51-0.51s1.73,0.17,2.51,0.51s1.47,0.81,2.05,1.39c0.58,0.58,1.05,1.26,1.39,2.05
			c0.34,0.78,0.51,1.62,0.51,2.51S354.33,358.52,353.99,359.3 M351.7,361.14c-0.07-0.19-0.15-0.41-0.25-0.69
			c-0.15-0.43-0.27-0.79-0.37-1.07s-0.2-0.56-0.32-0.85c-0.11-0.3-0.25-0.54-0.42-0.72s-0.39-0.34-0.68-0.48
			c0.52-0.26,0.95-0.62,1.27-1.09c0.33-0.46,0.49-0.94,0.49-1.42c0-0.45-0.08-0.85-0.23-1.21c-0.15-0.36-0.37-0.67-0.63-0.92
			c-0.27-0.25-0.58-0.45-0.94-0.59c-0.36-0.14-0.75-0.21-1.15-0.21h-1.96h-1.84v9.72h1.84v-3.87h0.75c0.58,0,1.02,0.16,1.29,0.47
			c0.28,0.31,0.49,0.71,0.64,1.19l0.69,2.22h2.05C351.85,361.49,351.77,361.33,351.7,361.14 M349.07,355.92
			c-0.32,0.27-0.71,0.4-1.17,0.4h-1.38v-3.02h1.38c0.46,0,0.85,0.14,1.17,0.42s0.48,0.65,0.48,1.11
			C349.55,355.29,349.39,355.66,349.07,355.92"/>
	</g>
</g>
</svg>
