<svg width="117" height="144" xmlns="http://www.w3.org/2000/svg" xml:space="preserve" version="1.1">

 <g>
  <title>Layer 1</title>
  <g id="svg_1">
   <g id="svg_2">
    <path id="svg_3" fill="#FFFFFF" d="m12.19761,124.09001l-1.1,0l0,3.23l1.1,0c0.89,0 1.59,-0.76 1.59,-1.64c0,-0.87 -0.7,-1.59 -1.59,-1.59m0.31,4.51l-1.41,0l0,2.8l-1.66,0l0,-8.56l3.07,0c1.61,0 2.92,1.24 2.92,2.87c0,1.63 -1.31,2.89 -2.92,2.89" class="st0"/>
    <path id="svg_4" fill="#FFFFFF" d="m21.47761,124.05001l-1.2,0l0,2.67l1.2,0c0.8,0 1.43,-0.5 1.43,-1.31c0.01,-0.8 -0.62,-1.36 -1.43,-1.36m1.78,7.34l-0.61,-1.95c-0.26,-0.86 -0.72,-1.46 -1.75,-1.46l-0.62,0l0,3.41l-1.64,0l0,-8.56l3.38,-0.01c1.47,0 2.56,1.06 2.56,2.46c0,0.99 -0.66,1.95 -1.61,2.26c0.55,0.2 0.87,0.59 1.07,1.11c0.2,0.48 0.34,0.92 0.6,1.68c0.16,0.47 0.28,0.79 0.44,1.05l-1.82,0l0,0.01z" class="st0"/>
    <path id="svg_5" fill="#FFFFFF" d="m32.47761,124.24001c-1.6,0 -2.88,1.31 -2.88,2.87c0,1.55 1.29,2.87 2.88,2.87s2.87,-1.32 2.87,-2.87c0,-1.56 -1.29,-2.87 -2.87,-2.87m0,7.31c-2.5,0 -4.55,-1.97 -4.55,-4.45c0,-2.5 2.06,-4.44 4.55,-4.44c2.48,0 4.54,1.96 4.54,4.44c0,2.47 -2.06,4.45 -4.54,4.45" class="st0"/>
    <path id="svg_6" fill="#FFFFFF" d="m43.54761,124.13001l-1.45,0l0,5.85l1.45,0c1.59,0 2.83,-1.36 2.83,-2.91c-0.01,-1.47 -1.25,-2.94 -2.83,-2.94m0.47,7.26l-3.58,0l0,-8.57l3.58,0c2.36,0 4.04,1.93 4.04,4.29c-0.01,2.36 -1.69,4.28 -4.04,4.28" class="st0"/>
    <path id="svg_7" fill="#FFFFFF" d="m58.97761,122.82001l0,4.65c0,2.27 -1.4,4.07 -3.79,4.07c-2.34,0 -3.82,-1.76 -3.82,-4.02l0,-4.7l1.66,0l0,4.71c0,1.32 0.75,2.38 2.13,2.38c1.45,0 2.14,-1 2.14,-2.36l0,-4.73l1.68,0z" class="st0"/>
    <path id="svg_8" fill="#FFFFFF" d="m70.34761,129.85001c-0.78,0.94 -1.89,1.56 -3.18,1.68l-0.11,0.47c0.73,0.12 1.04,0.6 1.04,1.1c0,0.47 -0.46,1.04 -1.14,1.04c-0.44,0 -0.76,-0.09 -1.06,-0.33l0.07,-0.36l0.43,0.13c0.37,0 0.64,-0.26 0.64,-0.55c0,-0.33 -0.26,-0.59 -0.64,-0.59l-0.26,0.03l0.18,-0.94c-2.34,-0.2 -4.13,-2.11 -4.13,-4.42c0,-2.48 2.05,-4.44 4.58,-4.44c1.47,0 2.73,0.67 3.54,1.66l-1.14,1.18c-0.52,-0.77 -1.4,-1.26 -2.4,-1.26c-1.6,0 -2.91,1.3 -2.91,2.87c0,1.54 1.32,2.86 2.91,2.86c1.07,0 1.88,-0.52 2.42,-1.31l1.16,1.18z" class="st0"/>
    <path id="svg_9" fill="#FFFFFF" d="m79.76761,120.23001c-0.03,0.89 -0.4,1.83 -1.41,1.83c-0.65,0 -1.11,-0.47 -1.66,-0.47c-0.26,0 -0.38,0.25 -0.41,0.47l-0.92,0c0,-0.86 0.41,-1.83 1.4,-1.83c0.62,0 1.18,0.47 1.62,0.47c0.29,0 0.42,-0.22 0.46,-0.47l0.92,0zm-2.19,4.01c-1.6,0 -2.88,1.31 -2.88,2.87c0,1.55 1.29,2.87 2.88,2.87s2.87,-1.32 2.87,-2.87c0,-1.56 -1.29,-2.87 -2.87,-2.87m0,7.31c-2.5,0 -4.55,-1.97 -4.55,-4.45c0,-2.5 2.06,-4.44 4.55,-4.44c2.48,0 4.54,1.96 4.54,4.44c0,2.47 -2.06,4.45 -4.54,4.45" class="st0"/>
    <polygon id="svg_10" fill="#FFFFFF" points="91.1876220703125,131.3900146484375 85.53759765625,131.3900146484375 85.53759765625,122.84002685546875 91.1876220703125,122.84002685546875 91.1876220703125,124.21002197265625 87.1676025390625,124.21002197265625 87.1676025390625,126.25 91.13760375976562,126.25 91.13760375976562,127.59002685546875 87.1676025390625,127.59002685546875 87.1676025390625,129.95001220703125 91.1876220703125,129.95001220703125 " class="st0"/>
    <path id="svg_11" fill="#FFFFFF" d="m97.51761,131.55001c-1.48,0 -2.3,-0.33 -3.33,-1.16l1.18,-1.19c0.68,0.57 1.31,0.78 2.08,0.78c0.63,0 1.14,-0.39 1.14,-0.89c0,-0.55 -0.33,-0.81 -1.76,-1.33c-1.25,-0.46 -2.39,-1.12 -2.39,-2.63c0,-1.47 1.24,-2.49 2.81,-2.49c1.32,0 2.16,0.35 2.86,1.01l-1.16,1.17c-0.43,-0.42 -0.92,-0.64 -1.65,-0.64c-0.64,0 -1.15,0.43 -1.15,0.91c0,0.55 0.42,0.86 1.76,1.34c1.71,0.6 2.42,1.37 2.42,2.71c0.01,1.28 -1.16,2.41 -2.81,2.41" class="st0"/>
    <path id="svg_12" fill="#FFFFFF" d="m5.73761,136.98001l-1.45,0l0,5.85l1.45,0c1.59,0 2.83,-1.36 2.83,-2.91c-0.01,-1.48 -1.25,-2.94 -2.83,-2.94m0.47,7.26l-3.58,0l0,-8.57l3.58,0c2.36,0 4.04,1.93 4.04,4.28c-0.01,2.36 -1.69,4.29 -4.04,4.29" class="st0"/>
    <polygon id="svg_13" fill="#FFFFFF" points="19.317626953125,144.24002075195312 13.667617797851562,144.24002075195312 13.667617797851562,135.68002319335938 19.317626953125,135.68002319335938 19.317626953125,137.05001831054688 15.287612915039062,137.05001831054688 15.287612915039062,139.10000610351562 19.267608642578125,139.10000610351562 19.267608642578125,140.44000244140625 15.287612915039062,140.44000244140625 15.287612915039062,142.79000854492188 19.317626953125,142.79000854492188 " class="st0"/>
    <path id="svg_14" fill="#FFFFFF" d="m31.15761,144.40001c-1.48,0 -2.3,-0.33 -3.33,-1.16l1.18,-1.19c0.68,0.57 1.31,0.78 2.08,0.78c0.63,0 1.14,-0.39 1.14,-0.89c0,-0.55 -0.33,-0.81 -1.76,-1.33c-1.25,-0.46 -2.39,-1.12 -2.39,-2.63c0,-1.47 1.24,-2.49 2.81,-2.49c1.32,0 2.16,0.35 2.86,1.01l-1.16,1.17c-0.43,-0.42 -0.92,-0.64 -1.65,-0.64c-0.64,0 -1.15,0.43 -1.15,0.91c0,0.55 0.42,0.86 1.76,1.34c1.71,0.6 2.42,1.37 2.42,2.71c0.01,1.27 -1.16,2.41 -2.81,2.41" class="st0"/>
    <path id="svg_15" fill="#FFFFFF" d="m41.51761,137.08001c-1.6,0 -2.88,1.31 -2.88,2.87c0,1.55 1.29,2.87 2.88,2.87s2.87,-1.32 2.87,-2.87c0,-1.56 -1.28,-2.87 -2.87,-2.87m0,7.32c-2.5,0 -4.55,-1.97 -4.55,-4.45c0,-2.5 2.06,-4.44 4.55,-4.44c2.48,0 4.54,1.96 4.54,4.44c0,2.47 -2.05,4.45 -4.54,4.45" class="st0"/>
    <polygon id="svg_16" fill="#FFFFFF" points="55.137603759765625,137.11001586914062 51.10760498046875,137.11001586914062 51.10760498046875,139.10000610351562 55.087615966796875,139.10000610351562 55.087615966796875,140.45001220703125 51.10760498046875,140.45001220703125 51.10760498046875,144.24002075195312 49.48760986328125,144.24002075195312 49.48760986328125,135.68002319335938 55.137603759765625,135.68002319335938 " class="st0"/>
    <polygon id="svg_17" fill="#FFFFFF" points="64.22760009765625,137.16000366210938 61.85760498046875,137.16000366210938 61.85760498046875,144.24002075195312 60.1776123046875,144.24002075195312 60.1776123046875,137.16000366210938 57.8076171875,137.16000366210938 57.8076171875,135.68002319335938 64.22760009765625,135.68002319335938 " class="st0"/>
    <polygon id="svg_18" fill="#FFFFFF" points="78.37762451171875,135.67001342773438 75.59762573242188,144.24002075195312 74.13760375976562,144.24002075195312 72.567626953125,138.95001220703125 70.97760009765625,144.24002075195312 69.52761840820312,144.24002075195312 66.73760986328125,135.67001342773438 68.49761962890625,135.67001342773438 70.3076171875,141.21002197265625 71.86761474609375,135.67001342773438 73.23760986328125,135.67001342773438 74.8076171875,141.22000122070312 76.63760375976562,135.67001342773438 " class="st0"/>
    <path id="svg_19" fill="#FFFFFF" d="m85.51761,141.14001l-1.43,-3.09l-1.44,3.09l2.87,0zm3.27,3.1l-1.82,0l-0.79,-1.71l-4.16,0l-0.8,1.71l-1.82,0l4.05,-8.57l1.3,0l4.04,8.57z" class="st0"/>
    <path id="svg_20" fill="#FFFFFF" d="m94.61761,136.89001l-1.2,0l0,2.67l1.2,0c0.8,0 1.43,-0.5 1.43,-1.31c0,-0.79 -0.63,-1.36 -1.43,-1.36m1.78,7.35l-0.61,-1.95c-0.26,-0.86 -0.72,-1.46 -1.75,-1.46l-0.62,0l0,3.41l-1.64,0l0,-8.56l3.38,-0.01c1.47,0 2.56,1.06 2.56,2.46c0,0.99 -0.66,1.95 -1.61,2.26c0.55,0.2 0.87,0.59 1.07,1.11c0.2,0.48 0.34,0.92 0.6,1.68c0.16,0.47 0.28,0.79 0.44,1.05l-1.82,0l0,0.01z" class="st0"/>
    <polygon id="svg_21" fill="#FFFFFF" points="107.03759765625,144.24002075195312 101.37762451171875,144.24002075195312 101.37762451171875,135.68002319335938 107.03759765625,135.68002319335938 107.03759765625,137.05001831054688 103.00759887695312,137.05001831054688 103.00759887695312,139.10000610351562 106.97760009765625,139.10000610351562 106.97760009765625,140.44000244140625 103.00759887695312,140.44000244140625 103.00759887695312,142.79000854492188 107.03759765625,142.79000854492188 " class="st0"/>
    <path id="svg_22" fill="#FFFFFF" d="m63.82761,56.31001c-2.42,-4.81 -5.9,-8.43 -10.43,-10.85s-9.34,-3.21 -14.41,-2.35c-4.99,0.83 -9.2,3.13 -12.65,6.89c-3.45,3.76 -5.54,8.31 -6.26,13.65l43.75,-7.34zm22.2,4.25c0.22,1.29 0.37,2.64 0.46,4.05c0.09,1.41 0.17,2.87 0.23,4.37l-63.97,10.71c1.12,2.18 2.53,4.2 4.22,6.06c1.68,1.85 3.63,3.38 5.82,4.58c2.19,1.2 4.59,2.03 7.18,2.5s5.36,0.45 8.32,-0.04c3.6,-0.6 7.1,-1.83 10.49,-3.68c3.39,-1.85 6.11,-4.03 8.15,-6.56l14.71,10.49c-4.84,5.08 -9.78,8.92 -14.8,11.52c-5.02,2.59 -10.49,4.39 -16.39,5.38c-6,1 -11.79,0.84 -17.38,-0.51c-5.59,-1.34 -10.61,-3.58 -15.08,-6.73c-4.46,-3.14 -8.23,-7.09 -11.31,-11.84c-3.07,-4.75 -5.1,-10.04 -6.07,-15.85c-0.97,-5.82 -0.78,-11.47 0.58,-16.96s3.66,-10.46 6.9,-14.89c3.24,-4.43 7.26,-8.19 12.06,-11.27c4.8,-3.08 10.15,-5.12 16.06,-6.1c5.63,-0.94 11.2,-0.81 16.72,0.4s10.57,3.33 15.16,6.36s8.46,6.91 11.63,11.65c3.18,4.72 5.28,10.18 6.31,16.36" class="st0"/>
    <path id="svg_23" fill="#FFFFFF" d="m108.71761,108.57001c-1.49,0.7 -3.17,1.27 -5.05,1.71c-1.88,0.43 -3.83,0.66 -5.84,0.66c-2.8,0 -5.49,-0.37 -8.07,-1.12c-2.58,-0.74 -4.84,-1.95 -6.76,-3.61c-1.93,-1.66 -3.46,-3.83 -4.6,-6.5s-1.71,-5.89 -1.71,-9.65l0,-90.06l19.3,0l0,86.77c0,3.15 0.63,5.32 1.9,6.5s2.78,1.77 4.53,1.77c2.19,0 4.29,-0.66 6.3,-1.97l0,15.5l0,0z" class="st0"/>
    <path id="svg_24" fill="#FFFFFF" d="m116.08761,4.88001c-0.42,-0.97 -0.99,-1.81 -1.71,-2.54c-0.73,-0.73 -1.57,-1.3 -2.54,-1.71s-2,-0.62 -3.11,-0.62c-1.1,0 -2.14,0.21 -3.11,0.62c-0.97,0.42 -1.82,0.99 -2.54,1.71c-0.73,0.73 -1.3,1.57 -1.71,2.54c-0.42,0.97 -0.62,2.01 -0.62,3.11c0,1.11 0.21,2.14 0.62,3.11c0.41,0.97 0.99,1.81 1.71,2.54c0.73,0.73 1.57,1.3 2.54,1.71c0.97,0.42 2,0.62 3.11,0.62c1.1,0 2.14,-0.21 3.11,-0.62c0.97,-0.42 1.82,-0.99 2.54,-1.71c0.73,-0.73 1.3,-1.57 1.71,-2.54c0.42,-0.97 0.62,-2.01 0.62,-3.11c0,-1.11 -0.21,-2.14 -0.62,-3.11m-1.42,5.62c-0.34,0.78 -0.8,1.47 -1.39,2.05c-0.58,0.58 -1.27,1.05 -2.05,1.39c-0.78,0.34 -1.62,0.51 -2.51,0.51s-1.73,-0.17 -2.51,-0.51s-1.47,-0.81 -2.05,-1.39c-0.58,-0.58 -1.05,-1.26 -1.39,-2.05c-0.34,-0.78 -0.51,-1.62 -0.51,-2.51s0.17,-1.73 0.51,-2.51s0.8,-1.46 1.39,-2.05c0.58,-0.58 1.27,-1.05 2.05,-1.39c0.78,-0.34 1.62,-0.51 2.51,-0.51s1.73,0.17 2.51,0.51s1.47,0.81 2.05,1.39c0.58,0.58 1.05,1.26 1.39,2.05c0.34,0.78 0.51,1.62 0.51,2.51s-0.17,1.73 -0.51,2.51m-2.29,1.84c-0.07,-0.19 -0.15,-0.41 -0.25,-0.69c-0.15,-0.43 -0.27,-0.79 -0.37,-1.07s-0.2,-0.56 -0.32,-0.85c-0.11,-0.3 -0.25,-0.54 -0.42,-0.72s-0.39,-0.34 -0.68,-0.48c0.52,-0.26 0.95,-0.62 1.27,-1.09c0.33,-0.46 0.49,-0.94 0.49,-1.42c0,-0.45 -0.08,-0.85 -0.23,-1.21c-0.15,-0.36 -0.37,-0.67 -0.63,-0.92c-0.27,-0.25 -0.58,-0.45 -0.94,-0.59c-0.36,-0.14 -0.75,-0.21 -1.15,-0.21l-1.96,0l-1.84,0l0,9.72l1.84,0l0,-3.87l0.75,0c0.58,0 1.02,0.16 1.29,0.47c0.28,0.31 0.49,0.71 0.64,1.19l0.69,2.22l2.05,0c-0.08,-0.13 -0.16,-0.29 -0.23,-0.48m-2.63,-5.22c-0.32,0.27 -0.71,0.4 -1.17,0.4l-1.38,0l0,-3.02l1.38,0c0.46,0 0.85,0.14 1.17,0.42s0.48,0.65 0.48,1.11c0,0.46 -0.16,0.83 -0.48,1.09" class="st0"/>
   </g>
  </g>
 </g>
</svg>