<?xml version="1.0" encoding="UTF-8"?><svg id="Camada_2" xmlns="http://www.w3.org/2000/svg" viewBox="0 0 695.89 183.33"><defs><style>.cls-1{fill:#fff;}.cls-2{fill:none;stroke:#fff;stroke-linecap:round;stroke-width:13px;}</style></defs><g id="Camada_1-2"><path class="cls-2" d="m168.64,142.38c1.72,2.44,26.23,36.01,68.78,34.39,38.79-1.48,60.25-30.97,62.65-34.39"/><g><path class="cls-1" d="m661.03,68.83c.25,1.47.42,3,.53,4.6.11,1.6.19,3.26.27,4.97l-72.7,12.17c1.28,2.48,2.87,4.78,4.79,6.88,1.92,2.11,4.12,3.84,6.61,5.2,2.49,1.36,5.21,2.31,8.16,2.84,2.95.53,6.1.52,9.45-.05,4.09-.69,8.06-2.08,11.92-4.18,3.85-2.1,6.94-4.58,9.27-7.46l16.72,11.92c-5.5,5.78-11.11,10.14-16.82,13.09-5.71,2.95-11.92,4.99-18.63,6.11-6.82,1.14-13.4.95-19.75-.58-6.35-1.53-12.06-4.07-17.13-7.65-5.07-3.57-9.36-8.06-12.85-13.46-3.49-5.4-5.79-11.41-6.9-18.02-1.11-6.61-.89-13.04.65-19.28,1.54-6.24,4.16-11.88,7.84-16.92,3.69-5.04,8.25-9.31,13.71-12.81,5.45-3.5,11.54-5.81,18.25-6.94,6.4-1.07,12.73-.92,19,.46,6.27,1.38,12.01,3.79,17.22,7.23,5.21,3.44,9.62,7.85,13.22,13.24,3.6,5.38,5.99,11.59,7.16,18.62m-25.24-4.83c-2.75-5.47-6.7-9.58-11.85-12.33-5.15-2.75-10.61-3.64-16.38-2.68-5.66.95-10.46,3.56-14.38,7.83-3.92,4.27-6.29,9.44-7.11,15.51l49.72-8.32Z"/><path class="cls-1" d="m686.81,123.39c-1.69.8-3.61,1.44-5.74,1.94-2.14.5-4.35.75-6.64.75-3.18,0-6.24-.42-9.18-1.27-2.93-.85-5.5-2.21-7.68-4.1-2.19-1.89-3.93-4.35-5.22-7.39-1.29-3.03-1.94-6.69-1.94-10.97V0h21.93v98.62c0,3.58.72,6.04,2.16,7.39,1.44,1.34,3.16,2.01,5.15,2.01,2.49,0,4.87-.75,7.16-2.24v17.6Z"/><path class="cls-1" d="m687.98,8.09c-.37.3-.81.46-1.33.46h-1.57v-3.43h1.57c.52,0,.97.16,1.33.48.37.32.55.74.55,1.26s-.18.93-.55,1.24m2.99,5.93c-.08-.21-.17-.47-.29-.78-.17-.49-.31-.9-.42-1.22-.11-.32-.23-.64-.36-.96-.13-.34-.28-.61-.48-.81-.19-.21-.45-.38-.77-.54.59-.3,1.07-.71,1.45-1.24.38-.53.56-1.07.56-1.62,0-.51-.09-.97-.26-1.37-.18-.41-.42-.76-.72-1.05-.3-.29-.66-.51-1.07-.67-.41-.16-.85-.23-1.31-.23h-4.32v11.04h2.09v-4.4h.85c.66,0,1.15.18,1.47.53.32.35.56.8.73,1.35l.78,2.52h2.33c-.1-.15-.19-.34-.26-.55m2.6-2.09c-.39.89-.91,1.66-1.58,2.33-.66.66-1.44,1.19-2.33,1.58-.89.39-1.84.58-2.86.58s-1.97-.19-2.86-.58c-.89-.39-1.67-.91-2.33-1.58-.66-.66-1.19-1.44-1.58-2.33-.39-.89-.58-1.84-.58-2.86s.19-1.97.58-2.86c.39-.89.91-1.66,1.58-2.33.66-.66,1.44-1.19,2.33-1.58.89-.39,1.84-.58,2.86-.58s1.97.19,2.86.58c.89.39,1.67.91,2.33,1.58.66.66,1.19,1.44,1.58,2.33.39.89.58,1.84.58,2.86s-.19,1.97-.58,2.86m1.61-6.39c-.47-1.1-1.12-2.06-1.95-2.89-.82-.82-1.79-1.47-2.89-1.95C689.25.24,688.07,0,686.81,0s-2.43.24-3.53.71c-1.1.47-2.06,1.12-2.89,1.95-.82.83-1.47,1.79-1.95,2.89-.47,1.1-.71,2.28-.71,3.53s.23,2.43.71,3.53c.47,1.1,1.12,2.06,1.95,2.89.82.83,1.79,1.47,2.89,1.95,1.1.47,2.28.71,3.53.71s2.43-.24,3.53-.71c1.1-.47,2.07-1.12,2.89-1.95.82-.82,1.47-1.79,1.95-2.89.47-1.1.71-2.28.71-3.53s-.24-2.43-.71-3.53"/></g><g><path class="cls-1" d="m0,85.2c0-26.33,19.38-41.54,41.26-41.54,9.75,0,17.24,3.47,23.14,8.53l-11.08,15.08c-3.79-3.21-6.96-4.67-10.74-4.67-11.28,0-18.53,8.9-18.53,22.6s7.55,22.55,17.74,22.55c5.2,0,10.17-2.57,14.29-5.84l9.19,15.35c-7.7,6.8-17.52,9.43-26.1,9.43C17.05,126.68,0,111.47,0,85.2Z"/><path class="cls-1" d="m66.08,85.2c0-26.33,18.54-41.54,38.57-41.54s38.57,15.21,38.57,41.54-18.54,41.48-38.57,41.48-38.57-15.21-38.57-41.48Zm53.1,0c0-13.71-4.82-22.6-14.53-22.6s-14.53,8.9-14.53,22.6,4.82,22.55,14.53,22.55,14.53-8.84,14.53-22.55Z"/><path class="cls-1" d="m155.28,45.57h19.14l1.69,10.03h.58c6.67-6.4,14.65-11.94,25.45-11.94,17.22,0,24.56,12.15,24.56,31.94v49.16h-23.46v-46.16c0-11.4-3.06-14.96-9.84-14.96-5.89,0-9.5,2.74-14.66,7.7v53.42h-23.46V45.57Z"/><path class="cls-1" d="m242.59,45.57h19.14l1.69,10.03h.58c6.67-6.4,14.65-11.94,25.45-11.94,17.22,0,24.56,12.15,24.56,31.94v49.16h-23.46v-46.16c0-11.4-3.06-14.96-9.84-14.96-5.89,0-9.5,2.74-14.66,7.7v53.42h-23.46V45.57Z"/><path class="cls-1" d="m325.29,85.2c0-25.69,18.33-41.54,37.35-41.54,22.56,0,33.73,16.4,33.73,38.01,0,4.23-.53,8.45-.98,10.37h-47.38c2.1,11.49,9.97,16.76,20.54,16.76,5.99,0,11.38-1.82,17.12-5.18l7.76,14.15c-8.11,5.62-18.71,8.92-28.1,8.92-22.57,0-40.06-15.27-40.06-41.48Zm51.04-8.68c0-8.71-3.79-14.98-13.16-14.98-7.42,0-13.82,4.97-15.41,14.98h28.57Z"/><path class="cls-1" d="m403.99,85.2c0-26.33,19.38-41.54,41.26-41.54,9.75,0,17.24,3.47,23.14,8.53l-11.08,15.08c-3.79-3.21-6.96-4.67-10.74-4.67-11.28,0-18.53,8.9-18.53,22.6s7.55,22.55,17.74,22.55c5.2,0,10.17-2.57,14.29-5.84l9.19,15.35c-7.7,6.8-17.52,9.43-26.1,9.43-22.1,0-39.16-15.21-39.16-41.48Z"/><path class="cls-1" d="m480.71,95.97v-31.99h-10.82v-17.51l12.13-.9,2.74-21.03h19.41v21.03h18.98v18.41h-18.98v31.71c0,8.98,4.08,12.58,10.25,12.58,2.61,0,5.45-.75,7.53-1.5l3.7,17.04c-4.21,1.33-9.92,2.87-17.6,2.87-19.57,0-27.35-12.36-27.35-30.71Z"/><path class="cls-1" d="m532.08,111.93c0-8.36,6.03-14.8,14.16-14.8s14.16,6.44,14.16,14.8-6.03,14.75-14.16,14.75-14.16-6.44-14.16-14.75Z"/></g></g></svg>